<?xml version="1.0" standalone="no"?>
<!DOCTYPE svg PUBLIC "-//W3C//DTD SVG 20010904//EN"
 "http://www.w3.org/TR/2001/REC-SVG-20010904/DTD/svg10.dtd">
<svg version="1.0" xmlns="http://www.w3.org/2000/svg"
 width="1023.000000pt" height="1023.000000pt" viewBox="0 0 1023.000000 1023.000000"
 preserveAspectRatio="xMidYMid meet">
<metadata>
Created by potrace 1.11, written by Peter Selinger 2001-2013
</metadata>
<g transform="translate(0.000000,1023.000000) scale(0.100000,-0.100000)"
fill="#000000" stroke="none">
<path d="M3297 10209 c-7 -4 -34 -10 -61 -13 -26 -3 -52 -8 -57 -11 -26 -17
-149 -27 -164 -14 -22 17 -82 13 -124 -9 -62 -32 -150 -59 -199 -61 -52 -1
-123 -39 -169 -90 -59 -65 -72 -81 -66 -81 3 0 -6 -10 -21 -21 -19 -15 -41
-21 -72 -21 -41 1 -45 -1 -58 -32 -11 -27 -21 -35 -52 -41 -62 -12 -160 -20
-179 -15 -39 10 -74 -4 -120 -48 -28 -26 -68 -60 -88 -76 -20 -16 -53 -45 -73
-63 -20 -18 -40 -30 -45 -27 -5 3 -9 0 -9 -5 0 -6 -3 -10 -7 -10 -39 6 -81
-27 -134 -106 -37 -55 -84 -102 -111 -111 -10 -3 -18 -10 -18 -15 0 -6 -4 -8
-9 -5 -11 7 -91 -71 -91 -90 0 -7 -24 -37 -53 -66 -56 -57 -97 -91 -97 -82 0
10 -65 -40 -102 -80 -21 -22 -38 -45 -38 -51 0 -6 -25 -33 -56 -61 -32 -27
-65 -62 -75 -79 -11 -16 -19 -26 -19 -20 0 26 -34 -44 -59 -124 -16 -49 -38
-103 -50 -119 -12 -17 -21 -34 -21 -39 -1 -12 -37 -53 -47 -53 -5 0 -21 -14
-36 -31 -26 -29 -27 -35 -20 -93 7 -60 7 -118 -1 -186 -3 -34 12 -78 39 -110
7 -8 17 -28 22 -44 8 -25 4 -33 -32 -70 -64 -64 -80 -112 -78 -225 2 -53 9
-120 17 -150 9 -35 12 -79 9 -120 -8 -94 -7 -338 1 -391 4 -25 9 -110 11 -190
2 -102 8 -156 19 -181 8 -20 12 -39 9 -43 -4 -3 -2 -6 3 -6 6 0 10 -10 10 -22
1 -22 8 -79 19 -158 8 -58 41 -137 66 -159 14 -13 14 -17 1 -45 -9 -17 -18
-33 -21 -36 -22 -19 -94 -183 -107 -245 -2 -11 -6 -29 -9 -40 -8 -33 -60 -179
-68 -193 -5 -6 -5 -12 -1 -12 3 0 2 -6 -4 -12 -9 -12 -31 -78 -39 -120 -8 -43
-10 -55 -18 -80 -4 -16 -11 -28 -15 -28 -6 0 -62 -113 -65 -130 0 -3 -6 -15
-13 -27 -7 -13 -11 -23 -8 -23 2 0 -4 -17 -14 -37 -10 -21 -16 -48 -14 -60 10
-58 13 -70 24 -98 6 -16 11 -31 11 -32 -1 -2 -1 -4 0 -5 17 -54 17 -184 -1
-255 -16 -60 -18 -104 -16 -265 l3 -193 36 -63 c20 -35 37 -69 37 -76 0 -7 3
-16 8 -20 4 -4 8 -12 8 -17 1 -5 2 -10 4 -11 6 -9 12 -54 16 -137 3 -62 11
-108 24 -137 10 -24 16 -44 13 -44 -3 0 1 -7 8 -16 7 -9 14 -24 16 -34 1 -9 8
-30 14 -46 15 -36 20 -94 9 -94 -12 0 -2 -85 17 -140 8 -25 30 -74 50 -110 19
-36 44 -83 55 -105 12 -22 33 -51 48 -65 76 -70 120 -108 120 -104 0 2 8 -3
18 -12 52 -47 81 -65 117 -75 22 -7 55 -18 73 -26 18 -8 43 -16 55 -18 12 -3
31 -9 42 -14 11 -5 35 -15 53 -22 46 -17 154 -87 170 -111 28 -39 62 -66 106
-84 25 -11 46 -22 46 -26 0 -5 6 -8 14 -8 8 0 23 -11 34 -25 11 -14 24 -25 29
-25 19 0 163 -131 163 -148 0 -14 57 -42 84 -42 14 0 26 -5 26 -11 0 -8 4 -9
13 0 8 6 16 8 19 6 6 -6 11 -7 118 -26 36 -6 74 -13 85 -15 16 -2 20 -10 19
-31 -1 -15 -3 -28 -4 -28 -2 0 -4 -27 -5 -60 -3 -70 7 -104 69 -239 26 -54 48
-108 51 -120 2 -11 5 -23 6 -26 6 -14 4 -130 -3 -130 -10 0 14 -30 70 -89 40
-41 94 -130 91 -148 -1 -5 0 -11 1 -15 1 -5 3 -11 4 -15 9 -35 31 -100 36
-108 4 -5 10 -23 14 -40 8 -32 53 -91 129 -170 50 -52 120 -180 119 -222 0
-12 -5 -30 -13 -39 -25 -30 -19 -51 23 -88 22 -20 45 -36 49 -36 5 0 9 -6 9
-14 0 -8 5 -16 12 -18 7 -3 11 -20 10 -45 -2 -37 0 -43 29 -57 18 -9 37 -16
44 -16 6 0 21 -9 33 -20 12 -12 22 -17 23 -13 0 4 4 -1 9 -13 11 -28 202 -124
276 -138 36 -8 70 -24 84 -41 8 -9 34 -31 59 -48 25 -17 54 -39 64 -48 16 -14
68 -42 212 -110 22 -10 36 -19 30 -19 -11 -1 69 -46 98 -56 9 -4 17 -11 17
-16 0 -5 6 -8 13 -7 6 2 29 -5 51 -14 21 -9 42 -17 46 -17 4 0 22 -8 41 -17
43 -22 55 -24 104 -22 89 4 101 1 163 -39 35 -22 76 -43 92 -47 29 -6 103 12
155 39 17 8 60 23 95 32 36 9 70 19 75 22 6 4 16 7 23 8 26 4 122 57 122 67 0
6 3 8 6 4 7 -7 103 64 188 138 45 39 56 46 79 51 21 3 29 -2 44 -26 9 -16 22
-30 27 -30 5 0 6 -3 3 -6 -4 -4 2 -19 12 -33 10 -14 22 -36 26 -49 11 -38 45
-44 72 -12 13 16 23 31 23 34 0 3 13 25 30 48 17 22 30 47 30 53 0 7 7 18 15
25 8 7 13 16 10 20 -9 14 98 116 144 138 23 12 68 28 99 37 56 17 180 79 195
99 6 8 10 8 13 0 5 -11 67 -10 86 2 6 4 8 3 4 -4 -9 -15 59 4 114 32 39 20 58
23 138 22 50 -1 92 0 92 4 0 3 16 5 35 5 20 -1 38 1 39 4 2 3 36 5 75 5 39 -1
71 2 71 7 0 4 8 6 18 4 15 -2 51 8 157 44 45 15 64 23 88 37 31 18 61 24 132
29 28 2 52 4 55 5 6 2 28 6 51 8 9 1 32 13 52 26 35 24 92 32 103 14 3 -4 9
-6 14 -3 5 3 11 1 15 -5 11 -18 65 -11 121 16 30 14 54 29 54 34 0 5 10 19 23
32 14 14 22 33 20 49 -1 24 3 28 43 38 27 7 62 27 87 50 23 21 52 41 63 45 49
15 68 67 78 211 1 17 5 36 10 43 4 6 3 12 -2 12 -14 0 -2 71 28 160 15 43 18
74 14 126 -3 38 -5 79 -5 91 1 23 38 124 49 133 20 15 56 110 55 145 0 22 -1
65 -2 95 -1 30 0 73 1 95 2 22 0 56 -5 75 -24 105 -27 129 -17 135 3 2 29 7
56 10 65 7 101 12 149 21 22 4 46 7 53 7 6 0 12 3 12 6 0 4 24 17 53 31 28 13
55 28 58 33 3 5 9 8 13 8 3 -1 7 -1 9 0 6 2 63 10 75 11 6 1 12 4 12 8 0 3 30
5 68 4 37 -1 67 -3 67 -4 0 -1 36 -3 80 -5 44 -2 82 -4 85 -5 3 -1 36 -1 75 0
66 1 118 19 137 45 4 6 8 6 8 2 0 -8 12 1 48 33 9 9 41 33 70 55 28 22 52 43
52 47 0 4 5 8 12 8 14 0 117 77 140 105 9 11 32 37 51 58 19 21 44 64 57 95
13 32 27 59 30 62 7 5 34 77 35 93 0 4 16 26 35 49 35 41 44 52 110 124 32 35
59 81 56 94 0 3 14 21 33 40 18 19 38 46 44 60 25 61 55 150 50 150 -3 0 -1 6
4 13 9 11 25 58 28 82 1 6 5 26 10 45 11 43 10 42 17 60 39 105 99 310 102
349 2 27 7 54 10 60 4 5 3 12 -1 14 -5 3 -7 68 -5 144 5 226 5 316 -2 353 -4
19 -8 44 -10 55 -1 11 -6 31 -9 45 -4 14 -9 41 -11 60 -9 70 -17 97 -61 185
-42 86 -50 109 -59 165 -9 54 -132 324 -167 366 -6 8 -8 14 -4 14 5 0 1 8 -7
18 -8 9 -21 32 -29 49 -8 18 -17 33 -21 33 -5 0 -8 7 -8 15 0 8 -4 23 -9 33
-5 9 -33 78 -62 152 -29 74 -61 151 -72 170 -10 19 -21 46 -23 60 -3 14 -11
43 -19 65 -18 51 -26 103 -15 110 8 5 25 73 22 88 -1 4 3 7 10 7 6 0 8 3 5 7
-4 3 -2 12 4 20 6 7 8 13 5 13 -4 0 -2 8 3 18 6 11 12 30 15 43 51 224 52 259
12 409 -14 52 -30 120 -36 150 -10 52 -15 77 -24 118 -2 9 -20 64 -40 122 -20
58 -38 112 -40 121 -3 9 -13 38 -24 65 -11 27 -24 63 -28 79 -10 40 -11 45
-14 48 -2 2 -9 33 -14 62 -10 54 -57 218 -65 225 -12 10 -64 122 -64 136 0 8
-4 14 -9 14 -4 0 -8 6 -8 13 0 8 -7 28 -16 46 -9 17 -17 37 -18 44 -2 7 -6 19
-9 27 -4 8 -20 58 -37 110 -17 52 -35 104 -40 115 -5 11 -19 45 -31 75 -12 30
-31 64 -41 76 -10 11 -15 24 -11 27 3 4 0 7 -8 7 -9 0 -24 9 -36 19 -11 11
-45 33 -74 51 -85 49 -145 93 -257 188 -37 31 -42 34 -87 62 -36 22 -75 53
-111 88 -7 6 -15 12 -18 12 -3 0 -16 10 -28 23 -25 23 -77 65 -143 116 -22 16
-48 37 -57 45 -10 9 -22 16 -27 16 -6 0 -17 10 -26 23 -8 12 -17 20 -20 17 -2
-3 -47 28 -100 68 -53 39 -100 72 -106 72 -5 0 -9 5 -9 10 0 6 -10 15 -22 20
-13 6 -36 19 -53 30 -27 18 -92 51 -200 100 -123 56 -181 84 -185 90 -11 15
-141 33 -255 36 -152 3 -207 12 -285 41 -18 7 -27 9 -115 26 -103 19 -359 9
-515 -20 -19 -3 -38 -6 -42 -5 -5 1 -8 -1 -8 -6 0 -4 -42 -8 -92 -8 -130 -1
-187 -11 -302 -49 -123 -42 -189 -49 -212 -24 -18 19 -83 35 -181 44 -151 13
-189 18 -205 26 -9 5 -26 9 -37 9 -24 0 -88 35 -128 70 -15 14 -42 32 -58 40
-17 8 -36 19 -43 24 -8 5 -21 11 -30 11 -10 1 -53 5 -97 9 -44 4 -83 10 -88
13 -4 3 -29 7 -55 9 -52 4 -149 22 -172 31 -8 4 -18 7 -22 8 -5 2 -10 4 -13 5
-3 1 -8 3 -12 5 -5 1 -16 5 -25 9 -9 4 -25 9 -35 11 -10 2 -18 4 -18 5 0 2
-15 4 -90 14 -60 8 -95 17 -196 49 -52 17 -81 22 -92 15 -10 -5 -17 -5 -17 -1
0 5 -19 10 -42 10 -24 1 -61 5 -83 8 -57 10 -273 12 -288 4z"/>
</g>
</svg>
